<svg xmlns="http://www.w3.org/2000/svg" viewBox="0 0 512 512">
  <rect width="512" height="512" rx="115" fill="#0ABFBC"/>
  <g transform="translate(76, 76) scale(15)" fill="none" stroke="white" stroke-width="1.35" stroke-linecap="round" stroke-linejoin="round">
    <path d="M19.5 12.572l-7.5 7.428l-7.5 -7.428a5 5 0 1 1 7.5 -6.566a5 5 0 1 1 7.5 6.572"/>
    <path d="M12 6l-3.293 3.293a1 1 0 0 0 0 1.414l.543 .543c.644 .644 1.775 .664 2.44 0l1.132 -1.136a1.912 1.912 0 0 1 2.7 0l2.978 2.886"/>
    <path d="M12.573 17.58l.027 -.027"/>
    <path d="M15 15l-4.5 4.5"/>
    <path d="M18 12l-7.5 7.5"/>
  </g>
</svg>
